<svg width="39" height="31" viewBox="0 0 39 31" fill="none" xmlns="http://www.w3.org/2000/svg">
<path d="M19.5 0C8.73015 0 0 6.93935 0 15.5C0 24.0606 8.73015 31 19.5 31C30.2698 31 39 24.0606 39 15.5C39 6.93935 30.2698 0 19.5 0ZM29.25 14.2104L25.7108 20.7607C25.4027 21.3311 24.6968 21.7 23.9187 21.7H13.65C12.5736 21.7 11.7 21.0056 11.7 20.15V11.5614C11.7 11.1104 11.9476 10.6811 12.3786 10.3865L19.5 5.5149L20.5608 6.25735C21.1068 6.6402 21.3408 7.2323 21.1633 7.79495L20.2078 10.85H27.3C28.3764 10.85 29.25 11.5444 29.25 12.4V14.2104Z" fill="black"/>
</svg>
