<svg width="43" height="26" viewBox="0 0 43 26" fill="none" xmlns="http://www.w3.org/2000/svg">
<path d="M38.7 0H4.3C1.92425 0 0 1.45438 0 3.25V22.75C0 24.5456 1.92425 26 4.3 26H38.7C41.0758 26 43 24.5456 43 22.75V3.25C43 1.45438 41.0758 0 38.7 0ZM13.9363 17.875H11.4939L6.74025 11.4595V17.875H4.3V8.125H6.7424L11.5025 14.5535V8.125H13.9363V17.875ZM25.1421 17.875H17.2V8.125H25.1271V9.75163H19.6424V12.0754H24.3294V13.65H19.6424V16.2614H25.1443L25.1421 17.875ZM38.7 16.25C38.7 17.1437 37.8937 17.875 36.909 17.875H29.7431C28.7563 17.875 27.95 17.1437 27.95 16.25V8.125H30.1903V15.4538H32.2156V9.73375H34.4559V15.4375H36.4618V8.125H38.7V16.25Z" fill="black"/>
</svg>
