<svg width="42" height="30" viewBox="0 0 42 30" fill="none" xmlns="http://www.w3.org/2000/svg">
<path d="M21 0C9.4017 0 0 6.7155 0 15C0 23.2845 9.4017 30 21 30C32.5983 30 42 23.2845 42 15C42 6.7155 32.5983 0 21 0ZM21 4.125C24.7695 4.125 27.825 6.3075 27.825 9C27.825 11.6925 24.7695 13.875 21 13.875C17.2305 13.875 14.175 11.6925 14.175 9C14.175 6.3075 17.2305 4.125 21 4.125ZM21 27C18.9739 27 17.032 26.7438 15.2339 26.2743C10.0778 24.928 10.592 19.2732 15.8562 18.4453C17.7418 18.1488 19.5755 18 21 18C22.4245 18 24.2582 18.1488 26.1438 18.4453C31.408 19.2732 31.9222 24.928 26.7661 26.2743C24.968 26.7438 23.0261 27 21 27Z" fill="black"/>
</svg>
