<svg width="53" height="47" viewBox="0 0 53 47" fill="none" xmlns="http://www.w3.org/2000/svg">
<path d="M37.6864 0C37.3439 0 37.0574 0.227032 37.0176 0.527832L36.7065 2.90537C35.4216 3.30011 34.2604 3.90054 33.2533 4.67246L30.7646 3.72236C30.4513 3.60251 30.0893 3.70701 29.9194 3.97021L27.4307 7.77978C27.2581 8.04064 27.3387 8.37452 27.6122 8.55547L29.7587 9.96455C29.6328 10.5433 29.5513 11.1387 29.5513 11.75C29.5513 12.3613 29.6328 12.9567 29.7587 13.5354L27.6122 14.9445C27.3387 15.1231 27.2608 15.457 27.4307 15.7202L29.9194 19.5298C30.0893 19.793 30.4513 19.9021 30.7646 19.7822L33.2533 18.8275C34.2604 19.5995 35.4216 20.1999 36.7065 20.5946L37.0176 22.9722C37.0574 23.273 37.3439 23.5 37.6864 23.5H42.6535C42.996 23.5 43.2826 23.273 43.3224 22.9722L43.6335 20.5946C44.9196 20.1995 46.084 19.6006 47.0918 18.8275L49.5754 19.773C49.8886 19.8929 50.2506 19.7884 50.4205 19.5252L52.9092 15.7156C53.0818 15.4548 53.0012 15.1209 52.7278 14.9399L50.5864 13.5309C50.7116 12.9536 50.7886 12.3595 50.7886 11.75C50.7886 11.1387 50.7071 10.5433 50.5812 9.96455L52.7278 8.55547C53.0012 8.37687 53.0791 8.04298 52.9092 7.77978L50.4205 3.97021C50.2506 3.70701 49.8886 3.59792 49.5754 3.71777L47.0866 4.67246C46.0795 3.90054 44.9183 3.30011 43.6335 2.90537L43.3224 0.527832C43.2826 0.227032 42.996 0 42.6535 0H37.6864ZM40.17 7.6375C42.7344 7.6375 44.8156 9.4799 44.8156 11.75C44.8156 14.0224 42.7344 15.8625 40.17 15.8625C37.6056 15.8625 35.5243 14.0224 35.5243 11.75C35.5243 9.4799 37.6056 7.6375 40.17 7.6375ZM13.7944 16.45C13.452 16.45 13.1654 16.677 13.1256 16.9778L12.6641 20.4707C10.5211 21.0104 8.58659 21.9781 7.03333 23.3164L3.42464 21.9395C3.11139 21.8196 2.74941 21.9241 2.57951 22.1873L0.0907594 25.9969C-0.081794 26.2577 -0.00119978 26.5916 0.272231 26.7726L3.45057 28.8563C3.1873 29.7793 3.00467 30.7297 3.00467 31.725C3.00467 32.7203 3.1873 33.6706 3.45057 34.5937L0.272231 36.682C-0.00119978 36.8606 -0.0791393 37.1945 0.0907594 37.4577L2.57951 41.2673C2.74941 41.5305 3.11139 41.635 3.42464 41.5151L7.03333 40.1336C8.58659 41.4719 10.5211 42.4396 12.6641 42.9793L13.1256 46.4722C13.1654 46.773 13.452 47 13.7944 47H18.7616C19.104 47 19.3906 46.773 19.4304 46.4722L19.8919 42.9793C22.0349 42.4396 23.9694 41.4719 25.5226 40.1336L29.1313 41.5105C29.4446 41.6304 29.8066 41.5259 29.9765 41.2627L32.4652 37.4531C32.6378 37.1923 32.5572 36.8584 32.2837 36.6774L29.1054 34.5937C29.3687 33.6706 29.5513 32.7203 29.5513 31.725C29.5513 30.7297 29.3687 29.7793 29.1054 28.8563L32.2837 26.768C32.5572 26.5894 32.6351 26.2555 32.4652 25.9923L29.9765 22.1827C29.8066 21.9195 29.4446 21.815 29.1313 21.9349L25.5226 23.3164C23.9694 21.9781 22.0349 21.0104 19.8919 20.4707L19.4304 16.9778C19.3906 16.677 19.104 16.45 18.7616 16.45H13.7944ZM16.278 27.025C19.2114 27.025 21.5873 29.1282 21.5873 31.725C21.5873 34.3217 19.2114 36.425 16.278 36.425C13.3446 36.425 10.9687 34.3217 10.9687 31.725C10.9687 29.1282 13.3446 27.025 16.278 27.025Z" fill="black"/>
</svg>
